#!OML:ASF H:\BabyWalks\Project 1\Capture day 1\Session 1\baby.ASF
:FULLY-SPECIFIED
:DEGREES
649
root -24.4117 17.6977 -2.03167 -175.753 74.6466 -180.53
lowerback 19.4789 -0.532809 3.50239
upperback 5.79885 0.481408 1.03519
thorax -4.62176 0.416248 -1.01278
lowerneck 0.578171 -6.11722 3.34844
upperneck -17.9866 -8.02892 -1.89401
head -5.74338 -3.81237 -0.744993
rclavicle 2.92213e-014 -1.11319e-014
rhumerus -71.054 51.8231 -107.97
rradius 84.8571
rwrist 20.1178
rhand -17.3312 16.5133
rfingers 7.12502
rthumb 8.91575 -13.2783
lclavicle 2.92213e-014 -1.11319e-014
lhumerus -63.0814 -46.237 100.89
lradius 81.95
lwrist -8.73109
lhand -0.0196334 -15.4167
lfingers 7.12502
lthumb 25.5716 12.8868
rfemur -20.9371 -0.484433 20.0583
rtibia 32.3432
rfoot -14.8609 -10.772
rtoes -1.71731
lfemur -24.7353 3.20972 -13.2027
ltibia 47.3687
lfoot -22.1913 -10.7944
ltoes -11.2043
650
root -24.4295 17.7093 -2.02577 -175.709 74.6102 -180.288
lowerback 19.4607 -0.499169 3.5742
upperback 5.75842 0.539382 1.08055
thorax -4.65298 0.442337 -1.01846
lowerneck 0.649706 -6.14653 3.30514
upperneck -17.847 -8.08582 -1.96765
head -5.71431 -3.83603 -0.756862
rclavicle -1.59028e-015 -2.70347e-014
rhumerus -71.3016 51.9303 -108.162
rradius 84.867
rwrist 20.0246
rhand -17.4355 16.4714
rfingers 7.12502
rthumb 8.81513 -13.3245
lclavicle -1.59028e-015 -2.70347e-014
lhumerus -63.1084 -46.2435 100.977
lradius 81.9717
lwrist -8.92735
lhand -0.0453357 -15.4313
lfingers 7.12502
lthumb 25.5469 12.8757
rfemur -20.5466 -0.561507 20.1202
rtibia 31.8611
rfoot -14.6353 -10.6307
rtoes -1.42811
lfemur -23.6705 3.21186 -12.5517
ltibia 48.8758
lfoot -22.2992 -10.5852
ltoes -11.4135
651
root -24.4466 17.7212 -2.02261 -175.718 74.625 -180.129
lowerback 19.398 -0.457355 3.62162
upperback 5.70804 0.598348 1.11046
thorax -4.67151 0.468143 -1.02663
lowerneck 0.744628 -6.16639 3.2581
upperneck -17.7197 -8.1297 -2.04146
head -5.69257 -3.85286 -0.767967
rclavicle -1.13307e-014 -1.43125e-014
rhumerus -71.5566 52.0183 -108.368
rradius 84.8817
rwrist 19.9463
rhand -17.5192 16.446
rfingers 7.12502
rthumb 8.7343 -13.3533
lclavicle -1.13307e-014 -1.43125e-014
lhumerus -63.1317 -46.243 101.051
lradius 81.9987
lwrist -9.12603
lhand -0.0543532 -15.4419
lfingers 7.12502
lthumb 25.5383 12.8664
rfemur -20.1991 -0.664043 20.1548
rtibia 31.4035
rfoot -14.4159 -10.4265
rtoes -1.18717
lfemur -22.5403 3.22597 -11.9292
ltibia 50.2251
lfoot -22.356 -10.2836
ltoes -11.518
652
root -24.4632 17.7329 -2.02213 -175.811 74.6843 -180.088
lowerback 19.3033 -0.420001 3.65641
upperback 5.63869 0.643341 1.10968
thorax -4.69388 0.485748 -1.0569
lowerneck 0.853435 -6.17331 3.19933
upperneck -17.5841 -8.15401 -2.09812
head -5.66884 -3.86089 -0.772623
rclavicle -1.86858e-014 -8.74653e-015
rhumerus -71.8352 52.0923 -108.624
rradius 84.8948
rwrist 19.8961
rhand -17.5901 16.4239
rfingers 7.12502
rthumb 8.66592 -13.3782
lclavicle -1.86858e-014 -8.74653e-015
lhumerus -63.1553 -46.2254 101.097
lradius 82.0201
lwrist -9.30163
lhand -0.0890222 -15.4754
lfingers 7.12502
lthumb 25.5051 12.8376
rfemur -19.9065 -0.788359 20.1508
rtibia 30.9838
rfoot -14.2071 -10.1703
rtoes -1.00108
lfemur -21.3511 3.23681 -11.3523
ltibia 51.3852
lfoot -22.3399 -9.88661
ltoes -11.4989
653
root -24.4795 17.7438 -2.02409 -175.998 74.7824 -180.179
lowerback 19.1671 -0.384826 3.66263
upperback 5.55636 0.67473 1.08719
thorax -4.70892 0.495798 -1.09059
lowerneck 0.972817 -6.16791 3.13096
upperneck -17.4392 -8.16074 -2.14508
head -5.64266 -3.86076 -0.773502
rclavicle -2.42517e-014 2.70347e-014
rhumerus -72.1198 52.1629 -108.906
rradius 84.9006
rwrist 19.8787
rhand -17.6568 16.4038
rfingers 7.12502
rthumb 8.60155 -13.401
lclavicle -2.42517e-014 2.70347e-014
lhumerus -63.1747 -46.1841 101.123
lradius 82.0327
lwrist -9.43772
lhand -0.145126 -15.5215
lfingers 7.12502
lthumb 25.4514 12.7991
rfemur -19.6812 -0.926544 20.1041
rtibia 30.6191
rfoot -14.0164 -9.87143
rtoes -0.864629
lfemur -20.1131 3.24256 -10.8336
ltibia 52.3301
lfoot -22.2291 -9.40087
ltoes -11.34
